<!-- Generated by IcoMoon.io -->
<svg version="1.1" xmlns="http://www.w3.org/2000/svg" width="1024" height="1024" viewBox="0 0 1024 1024">
<title></title>
<g id="icomoon-ignore">
</g>
<path fill="#000" d="M320 208c0 26.51-21.49 48-48 48s-48-21.49-48-48v0c0-26.51 21.49-48 48-48s48 21.49 48 48v0zM320 343.808c56.408-20.365 96-73.441 96-135.765 0-79.529-64.471-144-144-144s-144 64.471-144 144c0 62.323 39.592 115.399 94.997 135.448l1.003 0.317v56.192c0 79.529 64.471 144 144 144v0h96v136.192c-56.444 20.369-96.064 73.474-96.064 135.832 0 79.564 64.5 144.064 144.064 144.064s144.064-64.5 144.064-144.064c0-62.359-39.62-115.464-95.061-135.515l-1.003-0.317v-136.192h96c79.529 0 144-64.471 144-144v0-56.192c56.408-20.365 96-73.441 96-135.765 0-79.529-64.471-144-144-144s-144 64.471-144 144c0 62.323 39.592 115.399 94.997 135.448l1.003 0.317v56.192c0 26.51-21.49 48-48 48v0h-288c-26.51 0-48-21.49-48-48v0-56.192zM560 816c0 26.51-21.49 48-48 48s-48-21.49-48-48v0c0-26.51 21.49-48 48-48s48 21.49 48 48v0zM752 256c26.51 0 48-21.49 48-48s-21.49-48-48-48v0c-26.51 0-48 21.49-48 48s21.49 48 48 48v0z"></path>
</svg>
